<svg width="740" height="281" viewBox="0 0 740 281" fill="none" xmlns="http://www.w3.org/2000/svg">
<path d="M584.236 140.216C584.236 94.7028 611.657 67.2817 650.951 67.2817C671.022 67.2817 688.832 76.0452 696.747 89.049L699.009 71.8048H739.999V280.996H696.465V199.016C688.267 209.758 670.174 217.108 650.669 217.108C608.548 217.108 584.236 184.881 584.236 140.216ZM628.053 142.478C628.053 163.397 641.057 177.814 661.694 177.814C682.047 177.814 696.182 163.679 696.182 142.478C696.182 121.276 682.047 107.141 661.694 107.141C641.057 107.141 628.053 121.558 628.053 142.478Z" fill="#F9F7F5"/>
<path d="M585.302 71.8048V112.795H571.45C546.574 112.795 531.591 123.82 531.591 151.806V213.15H488.057V72.0875H529.047L531.308 93.0066C537.245 79.1547 549.683 69.8259 568.624 69.8259C573.712 69.8259 579.366 70.3913 585.302 71.8048Z" fill="#F9F7F5"/>
<path d="M382.488 216.825C352.523 216.825 333.865 199.298 333.865 171.595C333.865 145.587 352.24 129.474 386.163 126.93L425.74 123.82V121.558C425.74 107.707 417.259 100.357 401.711 100.357C383.336 100.357 373.442 107.424 373.442 120.145H337.258C337.258 88.2009 363.548 67.2817 403.973 67.2817C444.963 67.2817 468.143 90.1797 468.143 130.605V213.15H429.697L426.871 194.493C422.348 207.496 403.69 216.825 382.488 216.825ZM397.753 184.599C414.432 184.599 426.022 176.4 426.022 160.287V152.654L403.973 154.633C385.032 156.329 378.248 160.57 378.248 169.616C378.248 179.793 384.467 184.599 397.753 184.599Z" fill="#F9F7F5"/>
<path d="M170.287 280.996V71.8048H211.277L213.539 89.049C221.454 76.0452 239.264 67.2817 259.335 67.2817C298.629 67.2817 326.05 94.7028 326.05 140.216C326.05 184.881 301.738 217.108 259.617 217.108C240.112 217.108 222.02 209.758 213.822 199.016V280.996H170.287ZM214.104 142.478C214.104 163.679 228.239 177.814 248.593 177.814C269.229 177.814 282.233 163.397 282.233 142.478C282.233 121.558 269.229 107.141 248.593 107.141C228.239 107.141 214.104 121.276 214.104 142.478Z" fill="#F9F7F5"/>
<path d="M3.1096 64.7362C3.1096 26.8556 35.0537 0 80.0016 0C124.949 0 153.219 24.8768 153.219 64.4535H107.705C107.705 49.7536 96.6803 40.7075 79.4362 40.7075C60.7786 40.7075 48.9056 49.1882 48.9056 63.0401C48.9056 75.7612 55.4074 81.9804 70.1074 85.09L101.486 91.5919C138.801 99.2245 156.611 117.034 156.611 150.109C156.611 190.534 124.949 216.824 76.892 216.824C30.2479 216.824 0 191.665 0 152.37H45.5133C45.5133 167.636 56.8209 176.117 77.1747 176.117C97.8111 176.117 110.815 167.918 110.815 154.632C110.815 143.042 105.444 137.105 91.5919 134.278L59.6478 127.776C22.3326 120.144 3.1096 98.9419 3.1096 64.7362Z" fill="#F9F7F5"/>
</svg>
