<svg width="325" height="325" viewBox="0 0 325 325" fill="none" xmlns="http://www.w3.org/2000/svg">
<rect width="325" height="325" fill="#E75437"/>
<path d="M88.9836 114.052C88.9836 77.5252 119.786 51.6292 163.128 51.6292C206.47 51.6292 233.729 75.6171 233.729 113.78H189.842C189.842 99.605 179.211 90.8821 162.583 90.8821C144.592 90.8821 133.143 99.0598 133.143 112.417C133.143 124.683 139.413 130.68 153.587 133.679L183.845 139.948C219.827 147.308 237 164.481 237 196.374C237 235.355 206.47 260.706 160.13 260.706C115.152 260.706 85.9851 236.445 85.9851 198.555H129.872C129.872 213.275 140.776 221.453 160.402 221.453C180.301 221.453 192.84 213.548 192.84 200.736C192.84 189.56 187.661 183.835 174.304 181.109L143.502 174.84C107.52 167.48 88.9836 147.036 88.9836 114.052Z" fill="white"/>
</svg>
